<?xml version="1.0" encoding="us-ascii" standalone="no"?><svg xmlns="http://www.w3.org/2000/svg" xmlns:xlink="http://www.w3.org/1999/xlink" contentStyleType="text/css" height="2306px" preserveAspectRatio="none" style="width:2192px;height:2306px;background:#FFFFFF;" version="1.1" viewBox="0 0 2192 2306" width="2192px" zoomAndPan="magnify"><defs/><g><rect fill="#FFFFFF" height="287.5439" style="stroke:#181818;stroke-width:1.0;" width="10" x="169" y="72.8745"/><rect fill="#FFFFFF" height="122.772" style="stroke:#181818;stroke-width:1.0;" width="10" x="397" y="104.6289"/><rect fill="#FFFFFF" height="69.5088" style="stroke:#181818;stroke-width:1.0;" width="10" x="515.5" y="259.1553"/><rect fill="#FFFFFF" height="158.2808" style="stroke:#181818;stroke-width:1.0;" width="10" x="597" y="360.4185"/><rect fill="#FFFFFF" height="264.8071" style="stroke:#181818;stroke-width:1.0;" width="10" x="673" y="518.6992"/><rect fill="#FFFFFF" height="69.5088" style="stroke:#181818;stroke-width:1.0;" width="10" x="800" y="783.5063"/><rect fill="#FFFFFF" height="140.5264" style="stroke:#181818;stroke-width:1.0;" width="10" x="962" y="853.0151"/><rect fill="#FFFFFF" height="1219.4917" style="stroke:#181818;stroke-width:1.0;" width="10" x="1204" y="993.5415"/><rect fill="#FFFFFF" height="1080.4741" style="stroke:#181818;stroke-width:1.0;" width="10" x="1397" y="1063.0503"/><rect fill="#FFFFFF" height="116.2632" style="stroke:#181818;stroke-width:1.0;" width="10" x="1723" y="2143.5244"/><rect fill="#FFFFFF" height="46.7544" style="stroke:#181818;stroke-width:1.0;" width="10" x="1893" y="2213.0332"/><line style="stroke:#181818;stroke-width:0.5;stroke-dasharray:5.0,5.0;" x1="173.5" x2="173.5" y1="39.1201" y2="2268.7876"/><line style="stroke:#181818;stroke-width:0.5;stroke-dasharray:5.0,5.0;" x1="401.5" x2="401.5" y1="39.1201" y2="2268.7876"/><line style="stroke:#181818;stroke-width:0.5;stroke-dasharray:5.0,5.0;" x1="520.5" x2="520.5" y1="39.1201" y2="2268.7876"/><line style="stroke:#181818;stroke-width:0.5;stroke-dasharray:5.0,5.0;" x1="601.5" x2="601.5" y1="39.1201" y2="2268.7876"/><line style="stroke:#181818;stroke-width:0.5;stroke-dasharray:5.0,5.0;" x1="678" x2="678" y1="39.1201" y2="2268.7876"/><line style="stroke:#181818;stroke-width:0.5;stroke-dasharray:5.0,5.0;" x1="804.5" x2="804.5" y1="39.1201" y2="2268.7876"/><line style="stroke:#181818;stroke-width:0.5;stroke-dasharray:5.0,5.0;" x1="966.5" x2="966.5" y1="39.1201" y2="2268.7876"/><line style="stroke:#181818;stroke-width:0.5;stroke-dasharray:5.0,5.0;" x1="1208.5" x2="1208.5" y1="39.1201" y2="2268.7876"/><line style="stroke:#181818;stroke-width:0.5;stroke-dasharray:5.0,5.0;" x1="1402" x2="1402" y1="39.1201" y2="2268.7876"/><line style="stroke:#181818;stroke-width:0.5;stroke-dasharray:5.0,5.0;" x1="1727.5" x2="1727.5" y1="39.1201" y2="2268.7876"/><line style="stroke:#181818;stroke-width:0.5;stroke-dasharray:5.0,5.0;" x1="1897.5" x2="1897.5" y1="39.1201" y2="2268.7876"/><rect fill="#E2E2F0" height="33.1201" rx="2.5" ry="2.5" style="stroke:#181818;stroke-width:0.5;" width="71" x="138.5" y="5"/><text fill="#000000" font-family="sans-serif" font-size="14" lengthAdjust="spacing" textLength="57" x="145.5" y="28.0439">main.cpp</text><rect fill="#E2E2F0" height="33.1201" rx="2.5" ry="2.5" style="stroke:#181818;stroke-width:0.5;" width="71" x="138.5" y="2267.7876"/><text fill="#000000" font-family="sans-serif" font-size="14" lengthAdjust="spacing" textLength="57" x="145.5" y="2290.8315">main.cpp</text><rect fill="#E2E2F0" height="33.1201" rx="2.5" ry="2.5" style="stroke:#181818;stroke-width:0.5;" width="133" x="335.5" y="5"/><text fill="#000000" font-family="sans-serif" font-size="14" lengthAdjust="spacing" textLength="119" x="342.5" y="28.0439">first_stage_init.cpp</text><rect fill="#E2E2F0" height="33.1201" rx="2.5" ry="2.5" style="stroke:#181818;stroke-width:0.5;" width="133" x="335.5" y="2267.7876"/><text fill="#000000" font-family="sans-serif" font-size="14" lengthAdjust="spacing" textLength="119" x="342.5" y="2290.8315">first_stage_init.cpp</text><rect fill="#E2E2F0" height="33.1201" rx="2.5" ry="2.5" style="stroke:#181818;stroke-width:0.5;" width="84" x="478.5" y="5"/><text fill="#000000" font-family="sans-serif" font-size="14" lengthAdjust="spacing" textLength="70" x="485.5" y="28.0439">selinux.cpp</text><rect fill="#E2E2F0" height="33.1201" rx="2.5" ry="2.5" style="stroke:#181818;stroke-width:0.5;" width="84" x="478.5" y="2267.7876"/><text fill="#000000" font-family="sans-serif" font-size="14" lengthAdjust="spacing" textLength="70" x="485.5" y="2290.8315">selinux.cpp</text><rect fill="#E2E2F0" height="33.1201" rx="2.5" ry="2.5" style="stroke:#181818;stroke-width:0.5;" width="59" x="572.5" y="5"/><text fill="#000000" font-family="sans-serif" font-size="14" lengthAdjust="spacing" textLength="45" x="579.5" y="28.0439">init.cpp</text><rect fill="#E2E2F0" height="33.1201" rx="2.5" ry="2.5" style="stroke:#181818;stroke-width:0.5;" width="59" x="572.5" y="2267.7876"/><text fill="#000000" font-family="sans-serif" font-size="14" lengthAdjust="spacing" textLength="45" x="579.5" y="2290.8315">init.cpp</text><rect fill="#E2E2F0" height="33.1201" rx="2.5" ry="2.5" style="stroke:#181818;stroke-width:0.5;" width="48" x="654" y="5"/><text fill="#000000" font-family="sans-serif" font-size="14" lengthAdjust="spacing" textLength="34" x="661" y="28.0439">init.rc</text><rect fill="#E2E2F0" height="33.1201" rx="2.5" ry="2.5" style="stroke:#181818;stroke-width:0.5;" width="48" x="654" y="2267.7876"/><text fill="#000000" font-family="sans-serif" font-size="14" lengthAdjust="spacing" textLength="34" x="661" y="2290.8315">init.rc</text><rect fill="#E2E2F0" height="33.1201" rx="2.5" ry="2.5" style="stroke:#181818;stroke-width:0.5;" width="109" x="750.5" y="5"/><text fill="#000000" font-family="sans-serif" font-size="14" lengthAdjust="spacing" textLength="95" x="757.5" y="28.0439">init.zygote32.rc</text><rect fill="#E2E2F0" height="33.1201" rx="2.5" ry="2.5" style="stroke:#181818;stroke-width:0.5;" width="109" x="750.5" y="2267.7876"/><text fill="#000000" font-family="sans-serif" font-size="14" lengthAdjust="spacing" textLength="95" x="757.5" y="2290.8315">init.zygote32.rc</text><rect fill="#E2E2F0" height="33.1201" rx="2.5" ry="2.5" style="stroke:#181818;stroke-width:0.5;" width="103" x="915.5" y="5"/><text fill="#000000" font-family="sans-serif" font-size="14" lengthAdjust="spacing" textLength="89" x="922.5" y="28.0439">app_main.cpp</text><rect fill="#E2E2F0" height="33.1201" rx="2.5" ry="2.5" style="stroke:#181818;stroke-width:0.5;" width="103" x="915.5" y="2267.7876"/><text fill="#000000" font-family="sans-serif" font-size="14" lengthAdjust="spacing" textLength="89" x="922.5" y="2290.8315">app_main.cpp</text><rect fill="#E2E2F0" height="33.1201" rx="2.5" ry="2.5" style="stroke:#181818;stroke-width:0.5;" width="105" x="1156.5" y="5"/><text fill="#000000" font-family="sans-serif" font-size="14" lengthAdjust="spacing" textLength="91" x="1163.5" y="28.0439">ZygoteInit.java</text><rect fill="#E2E2F0" height="33.1201" rx="2.5" ry="2.5" style="stroke:#181818;stroke-width:0.5;" width="105" x="1156.5" y="2267.7876"/><text fill="#000000" font-family="sans-serif" font-size="14" lengthAdjust="spacing" textLength="91" x="1163.5" y="2290.8315">ZygoteInit.java</text><rect fill="#E2E2F0" height="33.1201" rx="2.5" ry="2.5" style="stroke:#181818;stroke-width:0.5;" width="132" x="1336" y="5"/><text fill="#000000" font-family="sans-serif" font-size="14" lengthAdjust="spacing" textLength="118" x="1343" y="28.0439">SystemServer.java</text><rect fill="#E2E2F0" height="33.1201" rx="2.5" ry="2.5" style="stroke:#181818;stroke-width:0.5;" width="132" x="1336" y="2267.7876"/><text fill="#000000" font-family="sans-serif" font-size="14" lengthAdjust="spacing" textLength="118" x="1343" y="2290.8315">SystemServer.java</text><rect fill="#E2E2F0" height="33.1201" rx="2.5" ry="2.5" style="stroke:#181818;stroke-width:0.5;" width="191" x="1632.5" y="5"/><text fill="#000000" font-family="sans-serif" font-size="14" lengthAdjust="spacing" textLength="177" x="1639.5" y="28.0439">ActivityManagerService.java</text><rect fill="#E2E2F0" height="33.1201" rx="2.5" ry="2.5" style="stroke:#181818;stroke-width:0.5;" width="191" x="1632.5" y="2267.7876"/><text fill="#000000" font-family="sans-serif" font-size="14" lengthAdjust="spacing" textLength="177" x="1639.5" y="2290.8315">ActivityManagerService.java</text><rect fill="#E2E2F0" height="33.1201" rx="2.5" ry="2.5" style="stroke:#181818;stroke-width:0.5;" width="129" x="1833.5" y="5"/><text fill="#000000" font-family="sans-serif" font-size="14" lengthAdjust="spacing" textLength="115" x="1840.5" y="28.0439">ZygoteServer.java</text><rect fill="#E2E2F0" height="33.1201" rx="2.5" ry="2.5" style="stroke:#181818;stroke-width:0.5;" width="129" x="1833.5" y="2267.7876"/><text fill="#000000" font-family="sans-serif" font-size="14" lengthAdjust="spacing" textLength="115" x="1840.5" y="2290.8315">ZygoteServer.java</text><rect fill="#FFFFFF" height="287.5439" style="stroke:#181818;stroke-width:1.0;" width="10" x="169" y="72.8745"/><rect fill="#FFFFFF" height="122.772" style="stroke:#181818;stroke-width:1.0;" width="10" x="397" y="104.6289"/><rect fill="#FFFFFF" height="69.5088" style="stroke:#181818;stroke-width:1.0;" width="10" x="515.5" y="259.1553"/><rect fill="#FFFFFF" height="158.2808" style="stroke:#181818;stroke-width:1.0;" width="10" x="597" y="360.4185"/><rect fill="#FFFFFF" height="264.8071" style="stroke:#181818;stroke-width:1.0;" width="10" x="673" y="518.6992"/><rect fill="#FFFFFF" height="69.5088" style="stroke:#181818;stroke-width:1.0;" width="10" x="800" y="783.5063"/><rect fill="#FFFFFF" height="140.5264" style="stroke:#181818;stroke-width:1.0;" width="10" x="962" y="853.0151"/><rect fill="#FFFFFF" height="1219.4917" style="stroke:#181818;stroke-width:1.0;" width="10" x="1204" y="993.5415"/><rect fill="#FFFFFF" height="1080.4741" style="stroke:#181818;stroke-width:1.0;" width="10" x="1397" y="1063.0503"/><rect fill="#FFFFFF" height="116.2632" style="stroke:#181818;stroke-width:1.0;" width="10" x="1723" y="2143.5244"/><rect fill="#FFFFFF" height="46.7544" style="stroke:#181818;stroke-width:1.0;" width="10" x="1893" y="2213.0332"/><polygon fill="#181818" points="157,68.8745,167,72.8745,157,76.8745,161,72.8745" style="stroke:#181818;stroke-width:1.0;"/><line style="stroke:#181818;stroke-width:1.0;" x1="0" x2="163" y1="72.8745" y2="72.8745"/><text fill="#000000" font-family="sans-serif" font-size="13" font-weight="bold" lengthAdjust="spacing" textLength="7" x="9.5" y="68.0181">1</text><text fill="#000000" font-family="sans-serif" font-size="13" lengthAdjust="spacing" textLength="139" x="20.5" y="68.0181">Linux kernel&#21551;&#21160;init&#36827;&#31243;</text><polygon fill="#181818" points="385,100.6289,395,104.6289,385,108.6289,389,104.6289" style="stroke:#181818;stroke-width:1.0;"/><line style="stroke:#181818;stroke-width:1.0;" x1="179" x2="391" y1="104.6289" y2="104.6289"/><text fill="#000000" font-family="sans-serif" font-size="13" font-weight="bold" lengthAdjust="spacing" textLength="7" x="206.5" y="99.7725">2</text><text fill="#000000" font-family="sans-serif" font-size="13" lengthAdjust="spacing" textLength="152" x="217.5" y="99.7725">FirstStageMain(argc, argv)</text><path d="M412,117.6289 L412,198.6289 L576,198.6289 L576,127.6289 L566,117.6289 L412,117.6289 " fill="#FEFFDD" style="stroke:#181818;stroke-width:0.5;"/><path d="M566,117.6289 L566,127.6289 L576,127.6289 L566,117.6289 " fill="#FEFFDD" style="stroke:#181818;stroke-width:0.5;"/><text fill="#000000" font-family="sans-serif" font-size="13" lengthAdjust="spacing" textLength="104" x="418" y="137.5269">&#25346;&#36733;&#20869;&#23384;&#25991;&#20214;&#31995;&#32479;</text><text fill="#000000" font-family="sans-serif" font-size="13" lengthAdjust="spacing" textLength="78" x="418" y="155.2813">&#21019;&#24314;&#35774;&#22791;&#33410;&#28857;</text><text fill="#000000" font-family="sans-serif" font-size="13" lengthAdjust="spacing" textLength="143" x="418" y="173.0356">&#35299;&#26512;cmdline&#21644;bootconfig</text><text fill="#000000" font-family="sans-serif" font-size="13" lengthAdjust="spacing" textLength="114" x="418" y="190.79">LoadKernelModules</text><polygon fill="#181818" points="190,223.4009,180,227.4009,190,231.4009,186,227.4009" style="stroke:#181818;stroke-width:1.0;"/><line style="stroke:#181818;stroke-width:1.0;" x1="184" x2="401" y1="227.4009" y2="227.4009"/><text fill="#000000" font-family="sans-serif" font-size="13" font-weight="bold" lengthAdjust="spacing" textLength="7" x="193.5" y="222.5444">3</text><text fill="#000000" font-family="sans-serif" font-size="13" lengthAdjust="spacing" textLength="183" x="204.5" y="222.5444">/system/bin/init "selinux_setup"</text><polygon fill="#181818" points="503.5,255.1553,513.5,259.1553,503.5,263.1553,507.5,259.1553" style="stroke:#181818;stroke-width:1.0;"/><line style="stroke:#181818;stroke-width:1.0;" x1="179" x2="509.5" y1="259.1553" y2="259.1553"/><text fill="#000000" font-family="sans-serif" font-size="13" font-weight="bold" lengthAdjust="spacing" textLength="7" x="287.75" y="254.2988">4</text><text fill="#000000" font-family="sans-serif" font-size="13" lengthAdjust="spacing" textLength="108" x="298.75" y="254.2988">SetupSelinux(argv)</text><path d="M530,272.1553 L530,299.1553 L658,299.1553 L658,282.1553 L648,272.1553 L530,272.1553 " fill="#FEFFDD" style="stroke:#181818;stroke-width:0.5;"/><path d="M648,272.1553 L648,282.1553 L658,282.1553 L648,272.1553 " fill="#FEFFDD" style="stroke:#181818;stroke-width:0.5;"/><text fill="#000000" font-family="sans-serif" font-size="13" lengthAdjust="spacing" textLength="107" x="536" y="292.0532">LoadSelinuxPolicy</text><polygon fill="#181818" points="190,324.6641,180,328.6641,190,332.6641,186,328.6641" style="stroke:#181818;stroke-width:1.0;"/><line style="stroke:#181818;stroke-width:1.0;" x1="184" x2="519.5" y1="328.6641" y2="328.6641"/><text fill="#000000" font-family="sans-serif" font-size="13" font-weight="bold" lengthAdjust="spacing" textLength="7" x="252.25" y="323.8076">5</text><text fill="#000000" font-family="sans-serif" font-size="13" lengthAdjust="spacing" textLength="184" x="263.25" y="323.8076">/system/bin/init "second_stage"</text><polygon fill="#181818" points="585,356.4185,595,360.4185,585,364.4185,589,360.4185" style="stroke:#181818;stroke-width:1.0;"/><line style="stroke:#181818;stroke-width:1.0;" x1="174" x2="591" y1="360.4185" y2="360.4185"/><text fill="#000000" font-family="sans-serif" font-size="13" font-weight="bold" lengthAdjust="spacing" textLength="7" x="295" y="355.562">6</text><text fill="#000000" font-family="sans-serif" font-size="13" lengthAdjust="spacing" textLength="170" x="306" y="355.562">SecondStageMain(argc, argv)</text><path d="M612,373.4185 L612,489.4185 L835,489.4185 L835,383.4185 L825,373.4185 L612,373.4185 " fill="#FEFFDD" style="stroke:#181818;stroke-width:0.5;"/><path d="M825,373.4185 L825,383.4185 L835,383.4185 L825,373.4185 " fill="#FEFFDD" style="stroke:#181818;stroke-width:0.5;"/><text fill="#000000" font-family="sans-serif" font-size="13" lengthAdjust="spacing" textLength="78" x="618" y="393.3164">PropertyInit();</text><text fill="#000000" font-family="sans-serif" font-size="13" lengthAdjust="spacing" textLength="152" x="618" y="411.0708">LoadBootScripts(am, sm);</text><text fill="#000000" font-family="sans-serif" font-size="13" lengthAdjust="spacing" textLength="202" x="618" y="428.8252">am.QueueEventTrigger("early-init");</text><text fill="#000000" font-family="sans-serif" font-size="13" lengthAdjust="spacing" textLength="170" x="618" y="446.5796">am.QueueEventTrigger("init");</text><text fill="#000000" font-family="sans-serif" font-size="13" lengthAdjust="spacing" textLength="195" x="618" y="464.334">am.QueueEventTrigger("late-init");</text><text fill="#000000" font-family="sans-serif" font-size="13" lengthAdjust="spacing" textLength="12" x="618" y="482.0884">...</text><polygon fill="#181818" points="661,514.6992,671,518.6992,661,522.6992,665,518.6992" style="stroke:#181818;stroke-width:1.0;"/><line style="stroke:#181818;stroke-width:1.0;" x1="602" x2="667" y1="518.6992" y2="518.6992"/><text fill="#000000" font-family="sans-serif" font-size="13" font-weight="bold" lengthAdjust="spacing" textLength="7" x="614" y="513.8428">7</text><text fill="#000000" font-family="sans-serif" font-size="13" lengthAdjust="spacing" textLength="36" x="625" y="513.8428">trigger</text><path d="M688,531.6992 L688,754.6992 L907,754.6992 L907,541.6992 L897,531.6992 L688,531.6992 " fill="#FEFFDD" style="stroke:#181818;stroke-width:0.5;"/><path d="M897,531.6992 L897,541.6992 L907,541.6992 L897,531.6992 " fill="#FEFFDD" style="stroke:#181818;stroke-width:0.5;"/><text fill="#000000" font-family="sans-serif" font-size="13" lengthAdjust="spacing" textLength="67" x="694" y="551.5972">on early-init</text><text fill="#000000" font-family="sans-serif" font-size="13" lengthAdjust="spacing" textLength="35" x="694" y="569.3516">on init</text><text fill="#000000" font-family="sans-serif" font-size="13" lengthAdjust="spacing" textLength="60" x="694" y="587.106">on late-init</text><text fill="#000000" font-family="sans-serif" font-size="13" lengthAdjust="spacing" textLength="82" x="694" y="604.8604">trigger early-fs</text><text fill="#000000" font-family="sans-serif" font-size="13" lengthAdjust="spacing" textLength="50" x="694" y="622.6147">trigger fs</text><text fill="#000000" font-family="sans-serif" font-size="13" lengthAdjust="spacing" textLength="79" x="694" y="640.3691">trigger post-fs</text><text fill="#000000" font-family="sans-serif" font-size="13" lengthAdjust="spacing" textLength="75" x="694" y="658.1235">trigger late-fs</text><text fill="#000000" font-family="sans-serif" font-size="13" lengthAdjust="spacing" textLength="108" x="694" y="675.8779">trigger post-fs-data</text><text fill="#000000" font-family="sans-serif" font-size="13" lengthAdjust="spacing" textLength="109" x="694" y="693.6323">trigger zygote-start</text><text fill="#000000" font-family="sans-serif" font-size="13" lengthAdjust="spacing" textLength="198" x="694" y="711.3867">trigger firmware_mounts_complete</text><text fill="#000000" font-family="sans-serif" font-size="13" lengthAdjust="spacing" textLength="97" x="694" y="729.1411">trigger early-boot</text><text fill="#000000" font-family="sans-serif" font-size="13" lengthAdjust="spacing" textLength="65" x="694" y="746.8955">trigger boot</text><polygon fill="#181818" points="788,779.5063,798,783.5063,788,787.5063,792,783.5063" style="stroke:#181818;stroke-width:1.0;"/><line style="stroke:#181818;stroke-width:1.0;" x1="678" x2="794" y1="783.5063" y2="783.5063"/><text fill="#000000" font-family="sans-serif" font-size="13" font-weight="bold" lengthAdjust="spacing" textLength="7" x="690" y="778.6499">8</text><text fill="#000000" font-family="sans-serif" font-size="13" lengthAdjust="spacing" textLength="87" x="701" y="778.6499">on zygote-start</text><path d="M815,796.5063 L815,823.5063 L1353,823.5063 L1353,806.5063 L1343,796.5063 L815,796.5063 " fill="#FEFFDD" style="stroke:#181818;stroke-width:0.5;"/><path d="M1343,796.5063 L1343,806.5063 L1353,806.5063 L1343,796.5063 " fill="#FEFFDD" style="stroke:#181818;stroke-width:0.5;"/><text fill="#000000" font-family="sans-serif" font-size="13" lengthAdjust="spacing" textLength="359" x="821" y="816.4043">service zygote /system/bin/app_process -Xzygote /system/bin</text><text fill="#000000" font-family="sans-serif" font-size="13" lengthAdjust="spacing" text-decoration="line-through" textLength="39" x="1184" y="816.4043">zygote</text><text fill="#000000" font-family="sans-serif" font-size="13" lengthAdjust="spacing" textLength="111" x="1227" y="816.4043">start-system-server</text><polygon fill="#181818" points="950,849.0151,960,853.0151,950,857.0151,954,853.0151" style="stroke:#181818;stroke-width:1.0;"/><line style="stroke:#181818;stroke-width:1.0;" x1="805" x2="956" y1="853.0151" y2="853.0151"/><text fill="#000000" font-family="sans-serif" font-size="13" font-weight="bold" lengthAdjust="spacing" textLength="7" x="817" y="848.1587">9</text><text fill="#000000" font-family="sans-serif" font-size="13" lengthAdjust="spacing" textLength="122" x="828" y="848.1587">app_process : main()</text><path d="M977,866.0151 L977,964.0151 L1368,964.0151 L1368,876.0151 L1358,866.0151 L977,866.0151 " fill="#FEFFDD" style="stroke:#181818;stroke-width:0.5;"/><path d="M1358,866.0151 L1358,876.0151 L1368,876.0151 L1358,866.0151 " fill="#FEFFDD" style="stroke:#181818;stroke-width:0.5;"/><text fill="#000000" font-family="sans-serif" font-size="13" lengthAdjust="spacing" textLength="116" x="983" y="885.9131">// &#36825;&#37324;&#20250;&#21019;&#24314;&#34394;&#25311;&#26426;</text><text fill="#000000" font-family="sans-serif" font-size="13" lengthAdjust="spacing" textLength="369" x="983" y="903.6675">AppRuntime runtime(argv[0], computeArgBlockSize(argc, argv));</text><text fill="#000000" font-family="sans-serif" font-size="13" lengthAdjust="spacing" textLength="232" x="983" y="921.4219">args.add(String8("start-system-server"));</text><text fill="#000000" font-family="sans-serif" font-size="13" lengthAdjust="spacing" textLength="116" x="983" y="939.1763">// &#36825;&#37324;&#20250;&#21551;&#21160;&#34394;&#25311;&#26426;</text><text fill="#000000" font-family="sans-serif" font-size="13" lengthAdjust="spacing" textLength="370" x="983" y="956.9307">runtime.start("com.android.internal.os.ZygoteInit", args, zygote);</text><polygon fill="#181818" points="1192,989.5415,1202,993.5415,1192,997.5415,1196,993.5415" style="stroke:#181818;stroke-width:1.0;"/><line style="stroke:#181818;stroke-width:1.0;" x1="967" x2="1198" y1="993.5415" y2="993.5415"/><text fill="#000000" font-family="sans-serif" font-size="13" font-weight="bold" lengthAdjust="spacing" textLength="14" x="979" y="988.6851">10</text><text fill="#000000" font-family="sans-serif" font-size="13" lengthAdjust="spacing" textLength="195" x="997" y="988.6851">com.android.internal.os.ZygoteInit</text><path d="M1219,1006.5415 L1219,1033.5415 L1417,1033.5415 L1417,1016.5415 L1407,1006.5415 L1219,1006.5415 " fill="#FEFFDD" style="stroke:#181818;stroke-width:0.5;"/><path d="M1407,1006.5415 L1407,1016.5415 L1417,1016.5415 L1407,1006.5415 " fill="#FEFFDD" style="stroke:#181818;stroke-width:0.5;"/><text fill="#000000" font-family="sans-serif" font-size="13" lengthAdjust="spacing" textLength="177" x="1225" y="1026.4395">preload(bootTimingsTraceLog);</text><polygon fill="#181818" points="1385,1059.0503,1395,1063.0503,1385,1067.0503,1389,1063.0503" style="stroke:#181818;stroke-width:1.0;"/><line style="stroke:#181818;stroke-width:1.0;" x1="1214" x2="1391" y1="1063.0503" y2="1063.0503"/><text fill="#000000" font-family="sans-serif" font-size="13" font-weight="bold" lengthAdjust="spacing" textLength="14" x="1223.5" y="1058.1938">11</text><text fill="#000000" font-family="sans-serif" font-size="13" lengthAdjust="spacing" textLength="146" x="1241.5" y="1058.1938">forkSystemServer&#24182;&#19988;run</text><path d="M1412,1076.0503 L1412,1210.0503 L2185,1210.0503 L2185,1086.0503 L2175,1076.0503 L1412,1076.0503 " fill="#FEFFDD" style="stroke:#181818;stroke-width:0.5;"/><path d="M2175,1076.0503 L2175,1086.0503 L2185,1086.0503 L2175,1076.0503 " fill="#FEFFDD" style="stroke:#181818;stroke-width:0.5;"/><text fill="#000000" font-family="sans-serif" font-size="13" lengthAdjust="spacing" textLength="325" x="1418" y="1095.9482">SystemTimeZone.initializeTimeZoneSettingsIfRequired();</text><text fill="#000000" font-family="sans-serif" font-size="13" lengthAdjust="spacing" textLength="224" x="1418" y="1113.7026">System.loadLibrary("android_servers");</text><text fill="#000000" font-family="sans-serif" font-size="13" lengthAdjust="spacing" textLength="138" x="1418" y="1131.457">createSystemContext();</text><text fill="#000000" font-family="sans-serif" font-size="13" lengthAdjust="spacing" textLength="441" x="1418" y="1149.2114">mSystemServiceManager = new SystemServiceManager(mSystemContext);</text><text fill="#000000" font-family="sans-serif" font-size="13" lengthAdjust="spacing" textLength="487" x="1418" y="1166.9658">LocalServices.addService(SystemServiceManager.class, mSystemServiceManager);</text><text fill="#000000" font-family="sans-serif" font-size="13" lengthAdjust="spacing" textLength="752" x="1418" y="1184.7202">mSystemServiceManager.startServiceFromJar("com.cvte.server.CtvManagerService", "/system/framework/cvte-central-control.jar");</text><text fill="#000000" font-family="sans-serif" font-size="13" lengthAdjust="spacing" textLength="226" x="1418" y="1202.4746">SystemClockTime.initializeIfRequired();</text><line style="stroke:#181818;stroke-width:1.0;" x1="1407" x2="1449" y1="1239.0854" y2="1239.0854"/><line style="stroke:#181818;stroke-width:1.0;" x1="1449" x2="1449" y1="1239.0854" y2="1252.0854"/><line style="stroke:#181818;stroke-width:1.0;" x1="1408" x2="1449" y1="1252.0854" y2="1252.0854"/><polygon fill="#181818" points="1418,1248.0854,1408,1252.0854,1418,1256.0854,1414,1252.0854" style="stroke:#181818;stroke-width:1.0;"/><text fill="#000000" font-family="sans-serif" font-size="13" font-weight="bold" lengthAdjust="spacing" textLength="14" x="1414" y="1234.229">12</text><text fill="#000000" font-family="sans-serif" font-size="13" lengthAdjust="spacing" textLength="147" x="1432" y="1234.229">startBootstrapServices(t);</text><path d="M1412,1265.0854 L1412,1434.0854 L1576,1434.0854 L1576,1275.0854 L1566,1265.0854 L1412,1265.0854 " fill="#FEFFDD" style="stroke:#181818;stroke-width:0.5;"/><path d="M1566,1265.0854 L1566,1275.0854 L1576,1275.0854 L1566,1265.0854 " fill="#FEFFDD" style="stroke:#181818;stroke-width:0.5;"/><text fill="#000000" font-family="sans-serif" font-size="13" lengthAdjust="spacing" textLength="12" x="1418" y="1284.9834">...</text><text fill="#000000" font-family="sans-serif" font-size="13" lengthAdjust="spacing" textLength="134" x="1418" y="1302.7378">ActivityManagerService</text><text fill="#000000" font-family="sans-serif" font-size="13" lengthAdjust="spacing" textLength="128" x="1418" y="1320.4922">PowerManagerService</text><text fill="#000000" font-family="sans-serif" font-size="13" lengthAdjust="spacing" textLength="77" x="1418" y="1338.2466">LightsService</text><text fill="#000000" font-family="sans-serif" font-size="13" lengthAdjust="spacing" textLength="135" x="1418" y="1356.001">DisplayManagerService</text><text fill="#000000" font-family="sans-serif" font-size="13" lengthAdjust="spacing" textLength="143" x="1418" y="1373.7554">PackageManagerService</text><text fill="#000000" font-family="sans-serif" font-size="13" lengthAdjust="spacing" textLength="119" x="1418" y="1391.5098">UserManagerService</text><text fill="#000000" font-family="sans-serif" font-size="13" lengthAdjust="spacing" textLength="83" x="1418" y="1409.2642">SensorService</text><text fill="#000000" font-family="sans-serif" font-size="13" lengthAdjust="spacing" textLength="12" x="1418" y="1427.0186">...</text><line style="stroke:#181818;stroke-width:1.0;" x1="1407" x2="1449" y1="1463.6294" y2="1463.6294"/><line style="stroke:#181818;stroke-width:1.0;" x1="1449" x2="1449" y1="1463.6294" y2="1476.6294"/><line style="stroke:#181818;stroke-width:1.0;" x1="1408" x2="1449" y1="1476.6294" y2="1476.6294"/><polygon fill="#181818" points="1418,1472.6294,1408,1476.6294,1418,1480.6294,1414,1476.6294" style="stroke:#181818;stroke-width:1.0;"/><text fill="#000000" font-family="sans-serif" font-size="13" font-weight="bold" lengthAdjust="spacing" textLength="14" x="1414" y="1458.7729">13</text><text fill="#000000" font-family="sans-serif" font-size="13" lengthAdjust="spacing" textLength="118" x="1432" y="1458.7729">startCoreServices(t);</text><path d="M1412,1489.6294 L1412,1729.6294 L1624,1729.6294 L1624,1499.6294 L1614,1489.6294 L1412,1489.6294 " fill="#FEFFDD" style="stroke:#181818;stroke-width:0.5;"/><path d="M1614,1489.6294 L1614,1499.6294 L1624,1499.6294 L1614,1489.6294 " fill="#FEFFDD" style="stroke:#181818;stroke-width:0.5;"/><text fill="#000000" font-family="sans-serif" font-size="13" lengthAdjust="spacing" textLength="12" x="1418" y="1509.5273">...</text><text fill="#000000" font-family="sans-serif" font-size="13" lengthAdjust="spacing" textLength="84" x="1418" y="1527.2817">BatteryService</text><text fill="#000000" font-family="sans-serif" font-size="13" lengthAdjust="spacing" textLength="110" x="1418" y="1545.0361">UsageStatsService</text><text fill="#000000" font-family="sans-serif" font-size="13" lengthAdjust="spacing" textLength="138" x="1418" y="1562.7905">WebViewUpdateService</text><text fill="#000000" font-family="sans-serif" font-size="13" lengthAdjust="spacing" textLength="155" x="1418" y="1580.5449">CachedDeviceStateService</text><text fill="#000000" font-family="sans-serif" font-size="13" lengthAdjust="spacing" textLength="139" x="1418" y="1598.2993">BinderCallsStatsService</text><text fill="#000000" font-family="sans-serif" font-size="13" lengthAdjust="spacing" textLength="112" x="1418" y="1616.0537">LooperStatsService</text><text fill="#000000" font-family="sans-serif" font-size="13" lengthAdjust="spacing" textLength="191" x="1418" y="1633.8081">NativeTombstoneManagerService</text><text fill="#000000" font-family="sans-serif" font-size="13" lengthAdjust="spacing" textLength="148" x="1418" y="1651.5625">BugreportManagerService</text><text fill="#000000" font-family="sans-serif" font-size="13" lengthAdjust="spacing" textLength="66" x="1418" y="1669.3169">GpuService</text><text fill="#000000" font-family="sans-serif" font-size="13" lengthAdjust="spacing" textLength="156" x="1418" y="1687.0713">RemoteProvisioningService</text><text fill="#000000" font-family="sans-serif" font-size="13" lengthAdjust="spacing" textLength="108" x="1418" y="1704.8257">CpuMonitorService</text><text fill="#000000" font-family="sans-serif" font-size="13" lengthAdjust="spacing" textLength="12" x="1418" y="1722.5801">...</text><line style="stroke:#181818;stroke-width:1.0;" x1="1407" x2="1449" y1="1759.1909" y2="1759.1909"/><line style="stroke:#181818;stroke-width:1.0;" x1="1449" x2="1449" y1="1759.1909" y2="1772.1909"/><line style="stroke:#181818;stroke-width:1.0;" x1="1408" x2="1449" y1="1772.1909" y2="1772.1909"/><polygon fill="#181818" points="1418,1768.1909,1408,1772.1909,1418,1776.1909,1414,1772.1909" style="stroke:#181818;stroke-width:1.0;"/><text fill="#000000" font-family="sans-serif" font-size="13" font-weight="bold" lengthAdjust="spacing" textLength="14" x="1414" y="1754.3345">14</text><text fill="#000000" font-family="sans-serif" font-size="13" lengthAdjust="spacing" textLength="123" x="1432" y="1754.3345">startOtherServices(t);</text><path d="M1412,1785.1909 L1412,2114.1909 L1712,2114.1909 L1712,1795.1909 L1702,1785.1909 L1412,1785.1909 " fill="#FEFFDD" style="stroke:#181818;stroke-width:0.5;"/><path d="M1702,1785.1909 L1702,1795.1909 L1712,1795.1909 L1702,1785.1909 " fill="#FEFFDD" style="stroke:#181818;stroke-width:0.5;"/><text fill="#000000" font-family="sans-serif" font-size="13" lengthAdjust="spacing" textLength="12" x="1418" y="1805.0889">...</text><text fill="#000000" font-family="sans-serif" font-size="13" lengthAdjust="spacing" textLength="120" x="1418" y="1822.8433">InputManagerService</text><text fill="#000000" font-family="sans-serif" font-size="13" lengthAdjust="spacing" textLength="138" x="1418" y="1840.5977">WindowManagerService</text><text fill="#000000" font-family="sans-serif" font-size="13" lengthAdjust="spacing" textLength="97" x="1418" y="1858.3521">BluetoothService</text><text fill="#000000" font-family="sans-serif" font-size="13" lengthAdjust="spacing" textLength="131" x="1418" y="1876.1064">LogcatManagerService</text><text fill="#000000" font-family="sans-serif" font-size="13" lengthAdjust="spacing" textLength="164" x="1418" y="1893.8608">NetworkManagementService</text><text fill="#000000" font-family="sans-serif" font-size="13" lengthAdjust="spacing" textLength="22" x="1418" y="1911.6152">Wifi</text><text fill="#000000" font-family="sans-serif" font-size="13" lengthAdjust="spacing" textLength="112" x="1418" y="1929.3696">ConnectivityService</text><text fill="#000000" font-family="sans-serif" font-size="13" lengthAdjust="spacing" textLength="75" x="1418" y="1947.124">AudioService</text><text fill="#000000" font-family="sans-serif" font-size="13" lengthAdjust="spacing" textLength="65" x="1418" y="1964.8784">AdbService</text><text fill="#000000" font-family="sans-serif" font-size="13" lengthAdjust="spacing" textLength="65" x="1418" y="1982.6328">UsbService</text><text fill="#000000" font-family="sans-serif" font-size="13" lengthAdjust="spacing" textLength="75" x="1418" y="2000.3872">SerialService</text><text fill="#000000" font-family="sans-serif" font-size="13" lengthAdjust="spacing" textLength="113" x="1418" y="2018.1416">HdmiControlService</text><text fill="#000000" font-family="sans-serif" font-size="13" lengthAdjust="spacing" textLength="132" x="1418" y="2035.896">TvInputManagerService</text><text fill="#000000" font-family="sans-serif" font-size="13" lengthAdjust="spacing" textLength="125" x="1418" y="2053.6504">LauncherAppsService</text><text fill="#000000" font-family="sans-serif" font-size="13" lengthAdjust="spacing" textLength="279" x="1418" y="2071.4048">mActivityManagerService.systemReady(runable)</text><text fill="#000000" font-family="sans-serif" font-size="13" lengthAdjust="spacing" textLength="57" x="1418" y="2089.1592">SystemUI</text><text fill="#000000" font-family="sans-serif" font-size="13" lengthAdjust="spacing" textLength="12" x="1418" y="2106.9136">...</text><polygon fill="#181818" points="1711,2139.5244,1721,2143.5244,1711,2147.5244,1715,2143.5244" style="stroke:#181818;stroke-width:1.0;"/><line style="stroke:#181818;stroke-width:1.0;" x1="1402" x2="1717" y1="2143.5244" y2="2143.5244"/><text fill="#000000" font-family="sans-serif" font-size="13" font-weight="bold" lengthAdjust="spacing" textLength="14" x="1414" y="2138.668">15</text><text fill="#000000" font-family="sans-serif" font-size="13" lengthAdjust="spacing" textLength="279" x="1432" y="2138.668">mActivityManagerService.systemReady(runable)</text><path d="M1738,2156.5244 L1738,2183.5244 L1827,2183.5244 L1827,2166.5244 L1817,2156.5244 L1738,2156.5244 " fill="#FEFFDD" style="stroke:#181818;stroke-width:0.5;"/><path d="M1817,2156.5244 L1817,2166.5244 L1827,2166.5244 L1817,2156.5244 " fill="#FEFFDD" style="stroke:#181818;stroke-width:0.5;"/><text fill="#000000" font-family="sans-serif" font-size="13" lengthAdjust="spacing" textLength="68" x="1744" y="2176.4224">&#21551;&#21160;luncher</text><polygon fill="#181818" points="1881,2209.0332,1891,2213.0332,1881,2217.0332,1885,2213.0332" style="stroke:#181818;stroke-width:1.0;"/><line style="stroke:#181818;stroke-width:1.0;" x1="1209" x2="1887" y1="2213.0332" y2="2213.0332"/><text fill="#000000" font-family="sans-serif" font-size="13" font-weight="bold" lengthAdjust="spacing" textLength="14" x="1436" y="2208.1768">16</text><text fill="#000000" font-family="sans-serif" font-size="13" lengthAdjust="spacing" textLength="212" x="1454" y="2208.1768">zygoteServer.runSelectLoop(abiList);</text><path d="M1908,2226.0332 L1908,2253.0332 L2046,2253.0332 L2046,2236.0332 L2036,2226.0332 L1908,2226.0332 " fill="#FEFFDD" style="stroke:#181818;stroke-width:0.5;"/><path d="M2036,2226.0332 L2036,2236.0332 L2046,2236.0332 L2036,2226.0332 " fill="#FEFFDD" style="stroke:#181818;stroke-width:0.5;"/><text fill="#000000" font-family="sans-serif" font-size="13" lengthAdjust="spacing" textLength="117" x="1914" y="2245.9312">&#24490;&#29615;&#25509;&#25910;&#28040;&#24687;&#24182;&#22788;&#29702;</text><!--SRC=[hLTFRzn45B_xKrXxSgIiW-22Ya1AjXG2crAo2KL5Q3LhltM6s3DcPhpRxOqAcggjgWfLYBQ87YYYGe8Ua2BQqFRBT3VXM_36zjfZhvEs4fUi_Vx_Vk_DF4VkKXOJGI9RW8mvax01Kf80rY3aurKX-DXM8W6B98gp91g0i6JX8-7h19WtzraDQS1i3vX2AwlzdXqHobmlZkrJTfUovAAz2u91EBtrQ7hj8MLK7Js_T_ZmkhNgAJeY2We7g_34A4CgfEfBXHdwsYcFU4QBUrgwWSOE4O6tREFVqL8PhydLOXmrWWOxokR3PfFPZSj7JvzEhtmt_UF7sGzxBmxs3_ywE3ouRqsltfiUF3dwyzdqmTxHjSk7bnzRHx_zCllvbXVv8MKm_Vx6W7FbSJQaWTNbnFyuXRp1_IG4QG7pRPtVQWHLfMn5JgI2Q6L0sOesiLiIGarZNu9AufRb0paHQ8N5t3UFtTCHUfd8gP5cMDQuCZKQMnxW70-fDocncQbU3WcvyhFAAuZCN1KWnWZqKkVc6J125LDLG3nc5WhnES5Z46goZW9dwPqKx1hsjUS96Ylfa6ZPbX4gIEH-ca02xuzmwhSmK032QG4HuQIjexMEjJbP6sALHG3NTKjopM59duM7JAZCqKHTZa4Ljl2QKAEKCxiiNB_DVujYh3nDRZUKXS1uZBbKfYhrNjItVQ988Rmq2R2cDew1ABFWK4TZ8g0VyOGfsVTu58U075JBq0Uk4AKlLRAGe3bNMPgttin8GsYLl7Noa9CQTuP_4uccMe8OKG_o39N99t7SZmNtyDQqsvyl6jZjTYviPvMrCrrRnyGcL-6Pc12d3cwSE3FNgVGaE4iBGCswIyHcf1hQYcfbnJvwVkVVlHil_hcRtuztxiwktv_zzCHQZUDDx1sDq3dxJM-RBzxuSjdMxKmKh8fWBUJURezU0lC4wxCX0kaIttTws5uMlEsq6kXeQSjA3UbwAMl84xkfhzF2j2vXlk3KTwbULOo4BfVkXPG4VU9RQGLoEUyTXYyOhx2BR9TExbTaH93YbuStwQyGML9V2rjZlwwD1IvhuZjwzhTeX4p9BK4ywFB0hBrUAvRVIudifJpE0Govs3NbqyVxB_w-ZIGQzIturIfSr6SIh0ukS0Qk7ZjAGcpvN8GRIUdAruUR-5L11VZwuitSN0slImU2Y8dJojdjP-sN-eRq161PcN678-iNqsixAkl0exX16D5NnBisWx7Tf7AYIeZqulT8c1kbevW_EqtkhXSIYMFJcFQuShAnp6Ld18y-8Y8RKc-aS6Wp3ZjgbDldbZYZhVcLCSHlCHXZsrQqIrj_W0aIjd4tAi53v5-q2Yex-gXfpeqML2alvcLnE8wPc1I1NeyIyyPpjXpDtyl6Gg-sTAgecbG1MkVu64HDrjMHvFpjD9LnI1RyYBURVX1KfDjo8LWFcEJ5MsN9lXxq3XVmsgZNYCBBOLBMXwNXbqo9xZmCFgCmtevzFTgvi4Ey7V1FWtxHreLYZJ8VH8U4eQn4wNBz9LCHdIN8DspnQ23ncxvEr5eI28YvK3Nv1t4oVzo4207YDzA8IiePdjgYl3ZPG87wNsZzHEqKwL-TrtM6IwLM-taaXu_hGCC450xjJabLu96wwrbG-cHbqWXFLXbpI2syA1ZaupjNh2O-vSMBFoWxF2WdJz3YMh4-z2FQoSxgNBGrQeBH9Gd3zWjSgaKpe-RJusPNmoOGV-BWtKq68Ipb_6-llq9NZWcRz-UriXhhRh5bvKuv8MEjyITPPii_p8WgCHerdEJTj2CpKNK-Bvao18h_2E4OwBFca07jKgcdrSXPtzZrJN_y9btKJv_zVdZpqUpchxFR-xFzgxDl7k66dZxuzl3MbKQyYn7-0m00]--></g></svg>