<?xml version="1.0" encoding="us-ascii" standalone="no"?><svg xmlns="http://www.w3.org/2000/svg" xmlns:xlink="http://www.w3.org/1999/xlink" contentStyleType="text/css" height="2269px" preserveAspectRatio="none" style="width:2192px;height:2269px;background:#FFFFFF;" version="1.1" viewBox="0 0 2192 2269" width="2192px" zoomAndPan="magnify"><defs/><g><rect fill="#FFFFFF" height="287.5439" style="stroke:#181818;stroke-width:1.0;" width="10" x="169" y="72.8745"/><rect fill="#FFFFFF" height="122.772" style="stroke:#181818;stroke-width:1.0;" width="10" x="397" y="104.6289"/><rect fill="#FFFFFF" height="69.5088" style="stroke:#181818;stroke-width:1.0;" width="10" x="515.5" y="259.1553"/><rect fill="#FFFFFF" height="158.2808" style="stroke:#181818;stroke-width:1.0;" width="10" x="597" y="360.4185"/><rect fill="#FFFFFF" height="264.8071" style="stroke:#181818;stroke-width:1.0;" width="10" x="673" y="518.6992"/><rect fill="#FFFFFF" height="69.5088" style="stroke:#181818;stroke-width:1.0;" width="10" x="800" y="783.5063"/><rect fill="#FFFFFF" height="140.5264" style="stroke:#181818;stroke-width:1.0;" width="10" x="962" y="853.0151"/><rect fill="#FFFFFF" height="1181.7373" style="stroke:#181818;stroke-width:1.0;" width="10" x="1204" y="993.5415"/><rect fill="#FFFFFF" height="1080.4741" style="stroke:#181818;stroke-width:1.0;" width="10" x="1397" y="1025.2959"/><rect fill="#FFFFFF" height="116.2632" style="stroke:#181818;stroke-width:1.0;" width="10" x="1723" y="2105.77"/><rect fill="#FFFFFF" height="46.7544" style="stroke:#181818;stroke-width:1.0;" width="10" x="1893" y="2175.2788"/><line style="stroke:#181818;stroke-width:0.5;stroke-dasharray:5.0,5.0;" x1="173.5" x2="173.5" y1="39.1201" y2="2231.0332"/><line style="stroke:#181818;stroke-width:0.5;stroke-dasharray:5.0,5.0;" x1="401.5" x2="401.5" y1="39.1201" y2="2231.0332"/><line style="stroke:#181818;stroke-width:0.5;stroke-dasharray:5.0,5.0;" x1="520.5" x2="520.5" y1="39.1201" y2="2231.0332"/><line style="stroke:#181818;stroke-width:0.5;stroke-dasharray:5.0,5.0;" x1="601.5" x2="601.5" y1="39.1201" y2="2231.0332"/><line style="stroke:#181818;stroke-width:0.5;stroke-dasharray:5.0,5.0;" x1="678" x2="678" y1="39.1201" y2="2231.0332"/><line style="stroke:#181818;stroke-width:0.5;stroke-dasharray:5.0,5.0;" x1="804.5" x2="804.5" y1="39.1201" y2="2231.0332"/><line style="stroke:#181818;stroke-width:0.5;stroke-dasharray:5.0,5.0;" x1="966.5" x2="966.5" y1="39.1201" y2="2231.0332"/><line style="stroke:#181818;stroke-width:0.5;stroke-dasharray:5.0,5.0;" x1="1208.5" x2="1208.5" y1="39.1201" y2="2231.0332"/><line style="stroke:#181818;stroke-width:0.5;stroke-dasharray:5.0,5.0;" x1="1402" x2="1402" y1="39.1201" y2="2231.0332"/><line style="stroke:#181818;stroke-width:0.5;stroke-dasharray:5.0,5.0;" x1="1727.5" x2="1727.5" y1="39.1201" y2="2231.0332"/><line style="stroke:#181818;stroke-width:0.5;stroke-dasharray:5.0,5.0;" x1="1897.5" x2="1897.5" y1="39.1201" y2="2231.0332"/><rect fill="#E2E2F0" height="33.1201" rx="2.5" ry="2.5" style="stroke:#181818;stroke-width:0.5;" width="71" x="138.5" y="5"/><text fill="#000000" font-family="sans-serif" font-size="14" lengthAdjust="spacing" textLength="57" x="145.5" y="28.0439">main.cpp</text><rect fill="#E2E2F0" height="33.1201" rx="2.5" ry="2.5" style="stroke:#181818;stroke-width:0.5;" width="71" x="138.5" y="2230.0332"/><text fill="#000000" font-family="sans-serif" font-size="14" lengthAdjust="spacing" textLength="57" x="145.5" y="2253.0771">main.cpp</text><rect fill="#E2E2F0" height="33.1201" rx="2.5" ry="2.5" style="stroke:#181818;stroke-width:0.5;" width="133" x="335.5" y="5"/><text fill="#000000" font-family="sans-serif" font-size="14" lengthAdjust="spacing" textLength="119" x="342.5" y="28.0439">first_stage_init.cpp</text><rect fill="#E2E2F0" height="33.1201" rx="2.5" ry="2.5" style="stroke:#181818;stroke-width:0.5;" width="133" x="335.5" y="2230.0332"/><text fill="#000000" font-family="sans-serif" font-size="14" lengthAdjust="spacing" textLength="119" x="342.5" y="2253.0771">first_stage_init.cpp</text><rect fill="#E2E2F0" height="33.1201" rx="2.5" ry="2.5" style="stroke:#181818;stroke-width:0.5;" width="84" x="478.5" y="5"/><text fill="#000000" font-family="sans-serif" font-size="14" lengthAdjust="spacing" textLength="70" x="485.5" y="28.0439">selinux.cpp</text><rect fill="#E2E2F0" height="33.1201" rx="2.5" ry="2.5" style="stroke:#181818;stroke-width:0.5;" width="84" x="478.5" y="2230.0332"/><text fill="#000000" font-family="sans-serif" font-size="14" lengthAdjust="spacing" textLength="70" x="485.5" y="2253.0771">selinux.cpp</text><rect fill="#E2E2F0" height="33.1201" rx="2.5" ry="2.5" style="stroke:#181818;stroke-width:0.5;" width="59" x="572.5" y="5"/><text fill="#000000" font-family="sans-serif" font-size="14" lengthAdjust="spacing" textLength="45" x="579.5" y="28.0439">init.cpp</text><rect fill="#E2E2F0" height="33.1201" rx="2.5" ry="2.5" style="stroke:#181818;stroke-width:0.5;" width="59" x="572.5" y="2230.0332"/><text fill="#000000" font-family="sans-serif" font-size="14" lengthAdjust="spacing" textLength="45" x="579.5" y="2253.0771">init.cpp</text><rect fill="#E2E2F0" height="33.1201" rx="2.5" ry="2.5" style="stroke:#181818;stroke-width:0.5;" width="48" x="654" y="5"/><text fill="#000000" font-family="sans-serif" font-size="14" lengthAdjust="spacing" textLength="34" x="661" y="28.0439">init.rc</text><rect fill="#E2E2F0" height="33.1201" rx="2.5" ry="2.5" style="stroke:#181818;stroke-width:0.5;" width="48" x="654" y="2230.0332"/><text fill="#000000" font-family="sans-serif" font-size="14" lengthAdjust="spacing" textLength="34" x="661" y="2253.0771">init.rc</text><rect fill="#E2E2F0" height="33.1201" rx="2.5" ry="2.5" style="stroke:#181818;stroke-width:0.5;" width="109" x="750.5" y="5"/><text fill="#000000" font-family="sans-serif" font-size="14" lengthAdjust="spacing" textLength="95" x="757.5" y="28.0439">init.zygote32.rc</text><rect fill="#E2E2F0" height="33.1201" rx="2.5" ry="2.5" style="stroke:#181818;stroke-width:0.5;" width="109" x="750.5" y="2230.0332"/><text fill="#000000" font-family="sans-serif" font-size="14" lengthAdjust="spacing" textLength="95" x="757.5" y="2253.0771">init.zygote32.rc</text><rect fill="#E2E2F0" height="33.1201" rx="2.5" ry="2.5" style="stroke:#181818;stroke-width:0.5;" width="103" x="915.5" y="5"/><text fill="#000000" font-family="sans-serif" font-size="14" lengthAdjust="spacing" textLength="89" x="922.5" y="28.0439">app_main.cpp</text><rect fill="#E2E2F0" height="33.1201" rx="2.5" ry="2.5" style="stroke:#181818;stroke-width:0.5;" width="103" x="915.5" y="2230.0332"/><text fill="#000000" font-family="sans-serif" font-size="14" lengthAdjust="spacing" textLength="89" x="922.5" y="2253.0771">app_main.cpp</text><rect fill="#E2E2F0" height="33.1201" rx="2.5" ry="2.5" style="stroke:#181818;stroke-width:0.5;" width="105" x="1156.5" y="5"/><text fill="#000000" font-family="sans-serif" font-size="14" lengthAdjust="spacing" textLength="91" x="1163.5" y="28.0439">ZygoteInit.java</text><rect fill="#E2E2F0" height="33.1201" rx="2.5" ry="2.5" style="stroke:#181818;stroke-width:0.5;" width="105" x="1156.5" y="2230.0332"/><text fill="#000000" font-family="sans-serif" font-size="14" lengthAdjust="spacing" textLength="91" x="1163.5" y="2253.0771">ZygoteInit.java</text><rect fill="#E2E2F0" height="33.1201" rx="2.5" ry="2.5" style="stroke:#181818;stroke-width:0.5;" width="132" x="1336" y="5"/><text fill="#000000" font-family="sans-serif" font-size="14" lengthAdjust="spacing" textLength="118" x="1343" y="28.0439">SystemServer.java</text><rect fill="#E2E2F0" height="33.1201" rx="2.5" ry="2.5" style="stroke:#181818;stroke-width:0.5;" width="132" x="1336" y="2230.0332"/><text fill="#000000" font-family="sans-serif" font-size="14" lengthAdjust="spacing" textLength="118" x="1343" y="2253.0771">SystemServer.java</text><rect fill="#E2E2F0" height="33.1201" rx="2.5" ry="2.5" style="stroke:#181818;stroke-width:0.5;" width="191" x="1632.5" y="5"/><text fill="#000000" font-family="sans-serif" font-size="14" lengthAdjust="spacing" textLength="177" x="1639.5" y="28.0439">ActivityManagerService.java</text><rect fill="#E2E2F0" height="33.1201" rx="2.5" ry="2.5" style="stroke:#181818;stroke-width:0.5;" width="191" x="1632.5" y="2230.0332"/><text fill="#000000" font-family="sans-serif" font-size="14" lengthAdjust="spacing" textLength="177" x="1639.5" y="2253.0771">ActivityManagerService.java</text><rect fill="#E2E2F0" height="33.1201" rx="2.5" ry="2.5" style="stroke:#181818;stroke-width:0.5;" width="129" x="1833.5" y="5"/><text fill="#000000" font-family="sans-serif" font-size="14" lengthAdjust="spacing" textLength="115" x="1840.5" y="28.0439">ZygoteServer.java</text><rect fill="#E2E2F0" height="33.1201" rx="2.5" ry="2.5" style="stroke:#181818;stroke-width:0.5;" width="129" x="1833.5" y="2230.0332"/><text fill="#000000" font-family="sans-serif" font-size="14" lengthAdjust="spacing" textLength="115" x="1840.5" y="2253.0771">ZygoteServer.java</text><rect fill="#FFFFFF" height="287.5439" style="stroke:#181818;stroke-width:1.0;" width="10" x="169" y="72.8745"/><rect fill="#FFFFFF" height="122.772" style="stroke:#181818;stroke-width:1.0;" width="10" x="397" y="104.6289"/><rect fill="#FFFFFF" height="69.5088" style="stroke:#181818;stroke-width:1.0;" width="10" x="515.5" y="259.1553"/><rect fill="#FFFFFF" height="158.2808" style="stroke:#181818;stroke-width:1.0;" width="10" x="597" y="360.4185"/><rect fill="#FFFFFF" height="264.8071" style="stroke:#181818;stroke-width:1.0;" width="10" x="673" y="518.6992"/><rect fill="#FFFFFF" height="69.5088" style="stroke:#181818;stroke-width:1.0;" width="10" x="800" y="783.5063"/><rect fill="#FFFFFF" height="140.5264" style="stroke:#181818;stroke-width:1.0;" width="10" x="962" y="853.0151"/><rect fill="#FFFFFF" height="1181.7373" style="stroke:#181818;stroke-width:1.0;" width="10" x="1204" y="993.5415"/><rect fill="#FFFFFF" height="1080.4741" style="stroke:#181818;stroke-width:1.0;" width="10" x="1397" y="1025.2959"/><rect fill="#FFFFFF" height="116.2632" style="stroke:#181818;stroke-width:1.0;" width="10" x="1723" y="2105.77"/><rect fill="#FFFFFF" height="46.7544" style="stroke:#181818;stroke-width:1.0;" width="10" x="1893" y="2175.2788"/><polygon fill="#181818" points="157,68.8745,167,72.8745,157,76.8745,161,72.8745" style="stroke:#181818;stroke-width:1.0;"/><line style="stroke:#181818;stroke-width:1.0;" x1="0" x2="163" y1="72.8745" y2="72.8745"/><text fill="#000000" font-family="sans-serif" font-size="13" font-weight="bold" lengthAdjust="spacing" textLength="7" x="9.5" y="68.0181">1</text><text fill="#000000" font-family="sans-serif" font-size="13" lengthAdjust="spacing" textLength="139" x="20.5" y="68.0181">Linux kernel&#21551;&#21160;init&#36827;&#31243;</text><polygon fill="#181818" points="385,100.6289,395,104.6289,385,108.6289,389,104.6289" style="stroke:#181818;stroke-width:1.0;"/><line style="stroke:#181818;stroke-width:1.0;" x1="179" x2="391" y1="104.6289" y2="104.6289"/><text fill="#000000" font-family="sans-serif" font-size="13" font-weight="bold" lengthAdjust="spacing" textLength="7" x="206.5" y="99.7725">2</text><text fill="#000000" font-family="sans-serif" font-size="13" lengthAdjust="spacing" textLength="152" x="217.5" y="99.7725">FirstStageMain(argc, argv)</text><path d="M412,117.6289 L412,198.6289 L576,198.6289 L576,127.6289 L566,117.6289 L412,117.6289 " fill="#FEFFDD" style="stroke:#181818;stroke-width:0.5;"/><path d="M566,117.6289 L566,127.6289 L576,127.6289 L566,117.6289 " fill="#FEFFDD" style="stroke:#181818;stroke-width:0.5;"/><text fill="#000000" font-family="sans-serif" font-size="13" lengthAdjust="spacing" textLength="104" x="418" y="137.5269">&#25346;&#36733;&#20869;&#23384;&#25991;&#20214;&#31995;&#32479;</text><text fill="#000000" font-family="sans-serif" font-size="13" lengthAdjust="spacing" textLength="78" x="418" y="155.2813">&#21019;&#24314;&#35774;&#22791;&#33410;&#28857;</text><text fill="#000000" font-family="sans-serif" font-size="13" lengthAdjust="spacing" textLength="143" x="418" y="173.0356">&#35299;&#26512;cmdline&#21644;bootconfig</text><text fill="#000000" font-family="sans-serif" font-size="13" lengthAdjust="spacing" textLength="114" x="418" y="190.79">LoadKernelModules</text><polygon fill="#181818" points="190,223.4009,180,227.4009,190,231.4009,186,227.4009" style="stroke:#181818;stroke-width:1.0;"/><line style="stroke:#181818;stroke-width:1.0;" x1="184" x2="401" y1="227.4009" y2="227.4009"/><text fill="#000000" font-family="sans-serif" font-size="13" font-weight="bold" lengthAdjust="spacing" textLength="7" x="193.5" y="222.5444">3</text><text fill="#000000" font-family="sans-serif" font-size="13" lengthAdjust="spacing" textLength="183" x="204.5" y="222.5444">/system/bin/init "selinux_setup"</text><polygon fill="#181818" points="503.5,255.1553,513.5,259.1553,503.5,263.1553,507.5,259.1553" style="stroke:#181818;stroke-width:1.0;"/><line style="stroke:#181818;stroke-width:1.0;" x1="179" x2="509.5" y1="259.1553" y2="259.1553"/><text fill="#000000" font-family="sans-serif" font-size="13" font-weight="bold" lengthAdjust="spacing" textLength="7" x="287.75" y="254.2988">4</text><text fill="#000000" font-family="sans-serif" font-size="13" lengthAdjust="spacing" textLength="108" x="298.75" y="254.2988">SetupSelinux(argv)</text><path d="M530,272.1553 L530,299.1553 L658,299.1553 L658,282.1553 L648,272.1553 L530,272.1553 " fill="#FEFFDD" style="stroke:#181818;stroke-width:0.5;"/><path d="M648,272.1553 L648,282.1553 L658,282.1553 L648,272.1553 " fill="#FEFFDD" style="stroke:#181818;stroke-width:0.5;"/><text fill="#000000" font-family="sans-serif" font-size="13" lengthAdjust="spacing" textLength="107" x="536" y="292.0532">LoadSelinuxPolicy</text><polygon fill="#181818" points="190,324.6641,180,328.6641,190,332.6641,186,328.6641" style="stroke:#181818;stroke-width:1.0;"/><line style="stroke:#181818;stroke-width:1.0;" x1="184" x2="519.5" y1="328.6641" y2="328.6641"/><text fill="#000000" font-family="sans-serif" font-size="13" font-weight="bold" lengthAdjust="spacing" textLength="7" x="252.25" y="323.8076">5</text><text fill="#000000" font-family="sans-serif" font-size="13" lengthAdjust="spacing" textLength="184" x="263.25" y="323.8076">/system/bin/init "second_stage"</text><polygon fill="#181818" points="585,356.4185,595,360.4185,585,364.4185,589,360.4185" style="stroke:#181818;stroke-width:1.0;"/><line style="stroke:#181818;stroke-width:1.0;" x1="174" x2="591" y1="360.4185" y2="360.4185"/><text fill="#000000" font-family="sans-serif" font-size="13" font-weight="bold" lengthAdjust="spacing" textLength="7" x="295" y="355.562">6</text><text fill="#000000" font-family="sans-serif" font-size="13" lengthAdjust="spacing" textLength="170" x="306" y="355.562">SecondStageMain(argc, argv)</text><path d="M612,373.4185 L612,489.4185 L835,489.4185 L835,383.4185 L825,373.4185 L612,373.4185 " fill="#FEFFDD" style="stroke:#181818;stroke-width:0.5;"/><path d="M825,373.4185 L825,383.4185 L835,383.4185 L825,373.4185 " fill="#FEFFDD" style="stroke:#181818;stroke-width:0.5;"/><text fill="#000000" font-family="sans-serif" font-size="13" lengthAdjust="spacing" textLength="78" x="618" y="393.3164">PropertyInit();</text><text fill="#000000" font-family="sans-serif" font-size="13" lengthAdjust="spacing" textLength="152" x="618" y="411.0708">LoadBootScripts(am, sm);</text><text fill="#000000" font-family="sans-serif" font-size="13" lengthAdjust="spacing" textLength="202" x="618" y="428.8252">am.QueueEventTrigger("early-init");</text><text fill="#000000" font-family="sans-serif" font-size="13" lengthAdjust="spacing" textLength="170" x="618" y="446.5796">am.QueueEventTrigger("init");</text><text fill="#000000" font-family="sans-serif" font-size="13" lengthAdjust="spacing" textLength="195" x="618" y="464.334">am.QueueEventTrigger("late-init");</text><text fill="#000000" font-family="sans-serif" font-size="13" lengthAdjust="spacing" textLength="12" x="618" y="482.0884">...</text><polygon fill="#181818" points="661,514.6992,671,518.6992,661,522.6992,665,518.6992" style="stroke:#181818;stroke-width:1.0;"/><line style="stroke:#181818;stroke-width:1.0;" x1="602" x2="667" y1="518.6992" y2="518.6992"/><text fill="#000000" font-family="sans-serif" font-size="13" font-weight="bold" lengthAdjust="spacing" textLength="7" x="614" y="513.8428">7</text><text fill="#000000" font-family="sans-serif" font-size="13" lengthAdjust="spacing" textLength="36" x="625" y="513.8428">trigger</text><path d="M688,531.6992 L688,754.6992 L907,754.6992 L907,541.6992 L897,531.6992 L688,531.6992 " fill="#FEFFDD" style="stroke:#181818;stroke-width:0.5;"/><path d="M897,531.6992 L897,541.6992 L907,541.6992 L897,531.6992 " fill="#FEFFDD" style="stroke:#181818;stroke-width:0.5;"/><text fill="#000000" font-family="sans-serif" font-size="13" lengthAdjust="spacing" textLength="67" x="694" y="551.5972">on early-init</text><text fill="#000000" font-family="sans-serif" font-size="13" lengthAdjust="spacing" textLength="35" x="694" y="569.3516">on init</text><text fill="#000000" font-family="sans-serif" font-size="13" lengthAdjust="spacing" textLength="60" x="694" y="587.106">on late-init</text><text fill="#000000" font-family="sans-serif" font-size="13" lengthAdjust="spacing" textLength="82" x="694" y="604.8604">trigger early-fs</text><text fill="#000000" font-family="sans-serif" font-size="13" lengthAdjust="spacing" textLength="50" x="694" y="622.6147">trigger fs</text><text fill="#000000" font-family="sans-serif" font-size="13" lengthAdjust="spacing" textLength="79" x="694" y="640.3691">trigger post-fs</text><text fill="#000000" font-family="sans-serif" font-size="13" lengthAdjust="spacing" textLength="75" x="694" y="658.1235">trigger late-fs</text><text fill="#000000" font-family="sans-serif" font-size="13" lengthAdjust="spacing" textLength="108" x="694" y="675.8779">trigger post-fs-data</text><text fill="#000000" font-family="sans-serif" font-size="13" lengthAdjust="spacing" textLength="109" x="694" y="693.6323">trigger zygote-start</text><text fill="#000000" font-family="sans-serif" font-size="13" lengthAdjust="spacing" textLength="198" x="694" y="711.3867">trigger firmware_mounts_complete</text><text fill="#000000" font-family="sans-serif" font-size="13" lengthAdjust="spacing" textLength="97" x="694" y="729.1411">trigger early-boot</text><text fill="#000000" font-family="sans-serif" font-size="13" lengthAdjust="spacing" textLength="65" x="694" y="746.8955">trigger boot</text><polygon fill="#181818" points="788,779.5063,798,783.5063,788,787.5063,792,783.5063" style="stroke:#181818;stroke-width:1.0;"/><line style="stroke:#181818;stroke-width:1.0;" x1="678" x2="794" y1="783.5063" y2="783.5063"/><text fill="#000000" font-family="sans-serif" font-size="13" font-weight="bold" lengthAdjust="spacing" textLength="7" x="690" y="778.6499">8</text><text fill="#000000" font-family="sans-serif" font-size="13" lengthAdjust="spacing" textLength="87" x="701" y="778.6499">on zygote-start</text><path d="M815,796.5063 L815,823.5063 L1353,823.5063 L1353,806.5063 L1343,796.5063 L815,796.5063 " fill="#FEFFDD" style="stroke:#181818;stroke-width:0.5;"/><path d="M1343,796.5063 L1343,806.5063 L1353,806.5063 L1343,796.5063 " fill="#FEFFDD" style="stroke:#181818;stroke-width:0.5;"/><text fill="#000000" font-family="sans-serif" font-size="13" lengthAdjust="spacing" textLength="359" x="821" y="816.4043">service zygote /system/bin/app_process -Xzygote /system/bin</text><text fill="#000000" font-family="sans-serif" font-size="13" lengthAdjust="spacing" text-decoration="line-through" textLength="39" x="1184" y="816.4043">zygote</text><text fill="#000000" font-family="sans-serif" font-size="13" lengthAdjust="spacing" textLength="111" x="1227" y="816.4043">start-system-server</text><polygon fill="#181818" points="950,849.0151,960,853.0151,950,857.0151,954,853.0151" style="stroke:#181818;stroke-width:1.0;"/><line style="stroke:#181818;stroke-width:1.0;" x1="805" x2="956" y1="853.0151" y2="853.0151"/><text fill="#000000" font-family="sans-serif" font-size="13" font-weight="bold" lengthAdjust="spacing" textLength="7" x="817" y="848.1587">9</text><text fill="#000000" font-family="sans-serif" font-size="13" lengthAdjust="spacing" textLength="122" x="828" y="848.1587">app_process : main()</text><path d="M977,866.0151 L977,964.0151 L1368,964.0151 L1368,876.0151 L1358,866.0151 L977,866.0151 " fill="#FEFFDD" style="stroke:#181818;stroke-width:0.5;"/><path d="M1358,866.0151 L1358,876.0151 L1368,876.0151 L1358,866.0151 " fill="#FEFFDD" style="stroke:#181818;stroke-width:0.5;"/><text fill="#000000" font-family="sans-serif" font-size="13" lengthAdjust="spacing" textLength="116" x="983" y="885.9131">// &#36825;&#37324;&#20250;&#21019;&#24314;&#34394;&#25311;&#26426;</text><text fill="#000000" font-family="sans-serif" font-size="13" lengthAdjust="spacing" textLength="369" x="983" y="903.6675">AppRuntime runtime(argv[0], computeArgBlockSize(argc, argv));</text><text fill="#000000" font-family="sans-serif" font-size="13" lengthAdjust="spacing" textLength="232" x="983" y="921.4219">args.add(String8("start-system-server"));</text><text fill="#000000" font-family="sans-serif" font-size="13" lengthAdjust="spacing" textLength="116" x="983" y="939.1763">// &#36825;&#37324;&#20250;&#21551;&#21160;&#34394;&#25311;&#26426;</text><text fill="#000000" font-family="sans-serif" font-size="13" lengthAdjust="spacing" textLength="370" x="983" y="956.9307">runtime.start("com.android.internal.os.ZygoteInit", args, zygote);</text><polygon fill="#181818" points="1192,989.5415,1202,993.5415,1192,997.5415,1196,993.5415" style="stroke:#181818;stroke-width:1.0;"/><line style="stroke:#181818;stroke-width:1.0;" x1="967" x2="1198" y1="993.5415" y2="993.5415"/><text fill="#000000" font-family="sans-serif" font-size="13" font-weight="bold" lengthAdjust="spacing" textLength="14" x="979" y="988.6851">10</text><text fill="#000000" font-family="sans-serif" font-size="13" lengthAdjust="spacing" textLength="195" x="997" y="988.6851">com.android.internal.os.ZygoteInit</text><polygon fill="#181818" points="1385,1021.2959,1395,1025.2959,1385,1029.2959,1389,1025.2959" style="stroke:#181818;stroke-width:1.0;"/><line style="stroke:#181818;stroke-width:1.0;" x1="1214" x2="1391" y1="1025.2959" y2="1025.2959"/><text fill="#000000" font-family="sans-serif" font-size="13" font-weight="bold" lengthAdjust="spacing" textLength="14" x="1223.5" y="1020.4395">11</text><text fill="#000000" font-family="sans-serif" font-size="13" lengthAdjust="spacing" textLength="146" x="1241.5" y="1020.4395">forkSystemServer&#24182;&#19988;run</text><path d="M1412,1038.2959 L1412,1172.2959 L2185,1172.2959 L2185,1048.2959 L2175,1038.2959 L1412,1038.2959 " fill="#FEFFDD" style="stroke:#181818;stroke-width:0.5;"/><path d="M2175,1038.2959 L2175,1048.2959 L2185,1048.2959 L2175,1038.2959 " fill="#FEFFDD" style="stroke:#181818;stroke-width:0.5;"/><text fill="#000000" font-family="sans-serif" font-size="13" lengthAdjust="spacing" textLength="325" x="1418" y="1058.1938">SystemTimeZone.initializeTimeZoneSettingsIfRequired();</text><text fill="#000000" font-family="sans-serif" font-size="13" lengthAdjust="spacing" textLength="224" x="1418" y="1075.9482">System.loadLibrary("android_servers");</text><text fill="#000000" font-family="sans-serif" font-size="13" lengthAdjust="spacing" textLength="138" x="1418" y="1093.7026">createSystemContext();</text><text fill="#000000" font-family="sans-serif" font-size="13" lengthAdjust="spacing" textLength="441" x="1418" y="1111.457">mSystemServiceManager = new SystemServiceManager(mSystemContext);</text><text fill="#000000" font-family="sans-serif" font-size="13" lengthAdjust="spacing" textLength="487" x="1418" y="1129.2114">LocalServices.addService(SystemServiceManager.class, mSystemServiceManager);</text><text fill="#000000" font-family="sans-serif" font-size="13" lengthAdjust="spacing" textLength="752" x="1418" y="1146.9658">mSystemServiceManager.startServiceFromJar("com.cvte.server.CtvManagerService", "/system/framework/cvte-central-control.jar");</text><text fill="#000000" font-family="sans-serif" font-size="13" lengthAdjust="spacing" textLength="226" x="1418" y="1164.7202">SystemClockTime.initializeIfRequired();</text><line style="stroke:#181818;stroke-width:1.0;" x1="1407" x2="1449" y1="1201.3311" y2="1201.3311"/><line style="stroke:#181818;stroke-width:1.0;" x1="1449" x2="1449" y1="1201.3311" y2="1214.3311"/><line style="stroke:#181818;stroke-width:1.0;" x1="1408" x2="1449" y1="1214.3311" y2="1214.3311"/><polygon fill="#181818" points="1418,1210.3311,1408,1214.3311,1418,1218.3311,1414,1214.3311" style="stroke:#181818;stroke-width:1.0;"/><text fill="#000000" font-family="sans-serif" font-size="13" font-weight="bold" lengthAdjust="spacing" textLength="14" x="1414" y="1196.4746">12</text><text fill="#000000" font-family="sans-serif" font-size="13" lengthAdjust="spacing" textLength="147" x="1432" y="1196.4746">startBootstrapServices(t);</text><path d="M1412,1227.3311 L1412,1396.3311 L1576,1396.3311 L1576,1237.3311 L1566,1227.3311 L1412,1227.3311 " fill="#FEFFDD" style="stroke:#181818;stroke-width:0.5;"/><path d="M1566,1227.3311 L1566,1237.3311 L1576,1237.3311 L1566,1227.3311 " fill="#FEFFDD" style="stroke:#181818;stroke-width:0.5;"/><text fill="#000000" font-family="sans-serif" font-size="13" lengthAdjust="spacing" textLength="12" x="1418" y="1247.229">...</text><text fill="#000000" font-family="sans-serif" font-size="13" lengthAdjust="spacing" textLength="134" x="1418" y="1264.9834">ActivityManagerService</text><text fill="#000000" font-family="sans-serif" font-size="13" lengthAdjust="spacing" textLength="128" x="1418" y="1282.7378">PowerManagerService</text><text fill="#000000" font-family="sans-serif" font-size="13" lengthAdjust="spacing" textLength="77" x="1418" y="1300.4922">LightsService</text><text fill="#000000" font-family="sans-serif" font-size="13" lengthAdjust="spacing" textLength="135" x="1418" y="1318.2466">DisplayManagerService</text><text fill="#000000" font-family="sans-serif" font-size="13" lengthAdjust="spacing" textLength="143" x="1418" y="1336.001">PackageManagerService</text><text fill="#000000" font-family="sans-serif" font-size="13" lengthAdjust="spacing" textLength="119" x="1418" y="1353.7554">UserManagerService</text><text fill="#000000" font-family="sans-serif" font-size="13" lengthAdjust="spacing" textLength="83" x="1418" y="1371.5098">SensorService</text><text fill="#000000" font-family="sans-serif" font-size="13" lengthAdjust="spacing" textLength="12" x="1418" y="1389.2642">...</text><line style="stroke:#181818;stroke-width:1.0;" x1="1407" x2="1449" y1="1425.875" y2="1425.875"/><line style="stroke:#181818;stroke-width:1.0;" x1="1449" x2="1449" y1="1425.875" y2="1438.875"/><line style="stroke:#181818;stroke-width:1.0;" x1="1408" x2="1449" y1="1438.875" y2="1438.875"/><polygon fill="#181818" points="1418,1434.875,1408,1438.875,1418,1442.875,1414,1438.875" style="stroke:#181818;stroke-width:1.0;"/><text fill="#000000" font-family="sans-serif" font-size="13" font-weight="bold" lengthAdjust="spacing" textLength="14" x="1414" y="1421.0186">13</text><text fill="#000000" font-family="sans-serif" font-size="13" lengthAdjust="spacing" textLength="118" x="1432" y="1421.0186">startCoreServices(t);</text><path d="M1412,1451.875 L1412,1691.875 L1624,1691.875 L1624,1461.875 L1614,1451.875 L1412,1451.875 " fill="#FEFFDD" style="stroke:#181818;stroke-width:0.5;"/><path d="M1614,1451.875 L1614,1461.875 L1624,1461.875 L1614,1451.875 " fill="#FEFFDD" style="stroke:#181818;stroke-width:0.5;"/><text fill="#000000" font-family="sans-serif" font-size="13" lengthAdjust="spacing" textLength="12" x="1418" y="1471.7729">...</text><text fill="#000000" font-family="sans-serif" font-size="13" lengthAdjust="spacing" textLength="84" x="1418" y="1489.5273">BatteryService</text><text fill="#000000" font-family="sans-serif" font-size="13" lengthAdjust="spacing" textLength="110" x="1418" y="1507.2817">UsageStatsService</text><text fill="#000000" font-family="sans-serif" font-size="13" lengthAdjust="spacing" textLength="138" x="1418" y="1525.0361">WebViewUpdateService</text><text fill="#000000" font-family="sans-serif" font-size="13" lengthAdjust="spacing" textLength="155" x="1418" y="1542.7905">CachedDeviceStateService</text><text fill="#000000" font-family="sans-serif" font-size="13" lengthAdjust="spacing" textLength="139" x="1418" y="1560.5449">BinderCallsStatsService</text><text fill="#000000" font-family="sans-serif" font-size="13" lengthAdjust="spacing" textLength="112" x="1418" y="1578.2993">LooperStatsService</text><text fill="#000000" font-family="sans-serif" font-size="13" lengthAdjust="spacing" textLength="191" x="1418" y="1596.0537">NativeTombstoneManagerService</text><text fill="#000000" font-family="sans-serif" font-size="13" lengthAdjust="spacing" textLength="148" x="1418" y="1613.8081">BugreportManagerService</text><text fill="#000000" font-family="sans-serif" font-size="13" lengthAdjust="spacing" textLength="66" x="1418" y="1631.5625">GpuService</text><text fill="#000000" font-family="sans-serif" font-size="13" lengthAdjust="spacing" textLength="156" x="1418" y="1649.3169">RemoteProvisioningService</text><text fill="#000000" font-family="sans-serif" font-size="13" lengthAdjust="spacing" textLength="108" x="1418" y="1667.0713">CpuMonitorService</text><text fill="#000000" font-family="sans-serif" font-size="13" lengthAdjust="spacing" textLength="12" x="1418" y="1684.8257">...</text><line style="stroke:#181818;stroke-width:1.0;" x1="1407" x2="1449" y1="1721.4365" y2="1721.4365"/><line style="stroke:#181818;stroke-width:1.0;" x1="1449" x2="1449" y1="1721.4365" y2="1734.4365"/><line style="stroke:#181818;stroke-width:1.0;" x1="1408" x2="1449" y1="1734.4365" y2="1734.4365"/><polygon fill="#181818" points="1418,1730.4365,1408,1734.4365,1418,1738.4365,1414,1734.4365" style="stroke:#181818;stroke-width:1.0;"/><text fill="#000000" font-family="sans-serif" font-size="13" font-weight="bold" lengthAdjust="spacing" textLength="14" x="1414" y="1716.5801">14</text><text fill="#000000" font-family="sans-serif" font-size="13" lengthAdjust="spacing" textLength="123" x="1432" y="1716.5801">startOtherServices(t);</text><path d="M1412,1747.4365 L1412,2076.4365 L1712,2076.4365 L1712,1757.4365 L1702,1747.4365 L1412,1747.4365 " fill="#FEFFDD" style="stroke:#181818;stroke-width:0.5;"/><path d="M1702,1747.4365 L1702,1757.4365 L1712,1757.4365 L1702,1747.4365 " fill="#FEFFDD" style="stroke:#181818;stroke-width:0.5;"/><text fill="#000000" font-family="sans-serif" font-size="13" lengthAdjust="spacing" textLength="12" x="1418" y="1767.3345">...</text><text fill="#000000" font-family="sans-serif" font-size="13" lengthAdjust="spacing" textLength="120" x="1418" y="1785.0889">InputManagerService</text><text fill="#000000" font-family="sans-serif" font-size="13" lengthAdjust="spacing" textLength="138" x="1418" y="1802.8433">WindowManagerService</text><text fill="#000000" font-family="sans-serif" font-size="13" lengthAdjust="spacing" textLength="97" x="1418" y="1820.5977">BluetoothService</text><text fill="#000000" font-family="sans-serif" font-size="13" lengthAdjust="spacing" textLength="131" x="1418" y="1838.3521">LogcatManagerService</text><text fill="#000000" font-family="sans-serif" font-size="13" lengthAdjust="spacing" textLength="164" x="1418" y="1856.1064">NetworkManagementService</text><text fill="#000000" font-family="sans-serif" font-size="13" lengthAdjust="spacing" textLength="22" x="1418" y="1873.8608">Wifi</text><text fill="#000000" font-family="sans-serif" font-size="13" lengthAdjust="spacing" textLength="112" x="1418" y="1891.6152">ConnectivityService</text><text fill="#000000" font-family="sans-serif" font-size="13" lengthAdjust="spacing" textLength="75" x="1418" y="1909.3696">AudioService</text><text fill="#000000" font-family="sans-serif" font-size="13" lengthAdjust="spacing" textLength="65" x="1418" y="1927.124">AdbService</text><text fill="#000000" font-family="sans-serif" font-size="13" lengthAdjust="spacing" textLength="65" x="1418" y="1944.8784">UsbService</text><text fill="#000000" font-family="sans-serif" font-size="13" lengthAdjust="spacing" textLength="75" x="1418" y="1962.6328">SerialService</text><text fill="#000000" font-family="sans-serif" font-size="13" lengthAdjust="spacing" textLength="113" x="1418" y="1980.3872">HdmiControlService</text><text fill="#000000" font-family="sans-serif" font-size="13" lengthAdjust="spacing" textLength="132" x="1418" y="1998.1416">TvInputManagerService</text><text fill="#000000" font-family="sans-serif" font-size="13" lengthAdjust="spacing" textLength="125" x="1418" y="2015.896">LauncherAppsService</text><text fill="#000000" font-family="sans-serif" font-size="13" lengthAdjust="spacing" textLength="279" x="1418" y="2033.6504">mActivityManagerService.systemReady(runable)</text><text fill="#000000" font-family="sans-serif" font-size="13" lengthAdjust="spacing" textLength="57" x="1418" y="2051.4048">SystemUI</text><text fill="#000000" font-family="sans-serif" font-size="13" lengthAdjust="spacing" textLength="12" x="1418" y="2069.1592">...</text><polygon fill="#181818" points="1711,2101.77,1721,2105.77,1711,2109.77,1715,2105.77" style="stroke:#181818;stroke-width:1.0;"/><line style="stroke:#181818;stroke-width:1.0;" x1="1402" x2="1717" y1="2105.77" y2="2105.77"/><text fill="#000000" font-family="sans-serif" font-size="13" font-weight="bold" lengthAdjust="spacing" textLength="14" x="1414" y="2100.9136">15</text><text fill="#000000" font-family="sans-serif" font-size="13" lengthAdjust="spacing" textLength="279" x="1432" y="2100.9136">mActivityManagerService.systemReady(runable)</text><path d="M1738,2118.77 L1738,2145.77 L1827,2145.77 L1827,2128.77 L1817,2118.77 L1738,2118.77 " fill="#FEFFDD" style="stroke:#181818;stroke-width:0.5;"/><path d="M1817,2118.77 L1817,2128.77 L1827,2128.77 L1817,2118.77 " fill="#FEFFDD" style="stroke:#181818;stroke-width:0.5;"/><text fill="#000000" font-family="sans-serif" font-size="13" lengthAdjust="spacing" textLength="68" x="1744" y="2138.668">&#21551;&#21160;luncher</text><polygon fill="#181818" points="1881,2171.2788,1891,2175.2788,1881,2179.2788,1885,2175.2788" style="stroke:#181818;stroke-width:1.0;"/><line style="stroke:#181818;stroke-width:1.0;" x1="1209" x2="1887" y1="2175.2788" y2="2175.2788"/><text fill="#000000" font-family="sans-serif" font-size="13" font-weight="bold" lengthAdjust="spacing" textLength="14" x="1436" y="2170.4224">16</text><text fill="#000000" font-family="sans-serif" font-size="13" lengthAdjust="spacing" textLength="212" x="1454" y="2170.4224">zygoteServer.runSelectLoop(abiList);</text><path d="M1908,2188.2788 L1908,2215.2788 L2046,2215.2788 L2046,2198.2788 L2036,2188.2788 L1908,2188.2788 " fill="#FEFFDD" style="stroke:#181818;stroke-width:0.5;"/><path d="M2036,2188.2788 L2036,2198.2788 L2046,2198.2788 L2036,2188.2788 " fill="#FEFFDD" style="stroke:#181818;stroke-width:0.5;"/><text fill="#000000" font-family="sans-serif" font-size="13" lengthAdjust="spacing" textLength="117" x="1914" y="2208.1768">&#24490;&#29615;&#25509;&#25910;&#28040;&#24687;&#24182;&#22788;&#29702;</text><!--SRC=[hLTVRzn447_tfx3koP5o3e8NL0HISgKGk9IGIoWgGgSzU-wonDurk-kxNj-eeAdQggfGXMYBw0D5L4YG1wI8DhJzChbB-1RCsZvxxNEILk8bPy_ElzzlPdOSkKDPH0G9RG4ouap26aX91h020Hyj2y57jX8nM2HMdCLX3uGbSni9NyV0l9dDSa07pFQ0ATIock_P8Q7CzQB8FcUtAOkls3iW60IJktkJcqyee-huvSEZ9xUiPK_H8L6G6rYv9NhfKo5LLogCqDL6cSSBMjpHqZLKTeWOU8is_Xqk5FxgJ2t6yKJGmRQoURzUPNhxsl7pvvFhtqt- -77wm-xXmVxHNmT71u-ioOs7auDdnt- -c3pUFRvvxUZQK-lujr-cFz_rGZ-W32RVt-vnhZpE-dHWjJdnFquWht4_3a1Qm7nRnxTgGPKfMv9ZgI1Swb6sf5NiXeH0qzYLeEAeOVb0JWLQOZ6ppNntj8TEAd8gf1cQ5QxC4uqjSx3E0-gD2sncgBCX8LT-cda9aHch1CHeWKvYNDy3XgkygtA89_H2BbuNF0AXngieS1RUIS2kO5qxdg2HaWu95sqPuW49tKzZYE7z8NRz9ZeQW70QG4GmRcflZHDrJZyDCClSWUkw1RbcioJFmaCcL6feeYxQe0nRU7MeKSgPNIIktsQ_UJ9M5YRJwyjSO3n6N2hpAB6UFs_wH95SU7Kym9oQs0QYY89D7Ow8W6x8OwPar-DX501oK4v33rmkIbxAP251CwxIC6-zcPA6q4fng-GX9nNk3Fiw4irZ2M98FSWYb3gVH54t4jp3MzDkVZwlO3URcR2PPjPCpvhQ9nQv3C_4X3YrSsFYp5Zdaabm5kQ0cdaNY4rF5RIbewKb-_Zb_NztRn_-yo2x7-y_cDvwDFtfcRKSHHjOEngYSVgRt3PVlF7begtB6IjO5eELW7ix7NeLp0dMio46qYM-xtIml6pmjjEeeQEXDKiv9Ekbo24Bx2QsJWF3keJvWbFVfNfLCHAuNBgN4nBqn3UI3EHYLZjqdpDUOXVPBepShyYG8CLdkpVfBn5PK5znQrN3OEHEma4deM0Mky_5ZYcVFDq__FiUuZTSpzbLIZj_daesaSBBd86hEuQI0Air4-4oKLWUkThVm0y2Ai3NTsPgvWPuTRPfJn0nTXePCTsqSb9VRfu0J2jLRd4ax4fouuP57ZX5QuGHFTtlsWn6TjsH4vPS97UsHu9CAUcYxDcfCtUzW4YiU6tOaz99EogJNH0y_8Y8jB-yeS9-IpbigM6cdsbYUpLcqzx7poWOOTcMj4bJVpi94ZHnhId10-HVD78gMtfADET62SgKvsqwtnmdT4o2G6ysYN6Z6LkEvk-ijj1RAUaggiPbWDOw7u6eoDhQavozdQSo2iYS7V5sabrUacx9EMSTO9BdRwNz-7hGMrp0QwDU8GhdUbpaXwdXHqY1xXBqFgCmsefytTgPi4MyRV3FWtxHsld12cK-Y1O90bdoqkRw8wGakaYGRzZaOK_YvtYLg9Lu823YGbNa7qJnx743GWI8dpT3AYbdEBLvUb6yXWBrlz3wYThEmxywhwiCzq4bzqj83XzLWGOnA6pQxOAgWKUgfXT1wSbAfI5ELk6pJosyA1XaxJixM8vzolCNlrTKk5Tqdg3vjM9zw8UqbSxgJBGvh8FH9Z73yWlSXtanm_hfSTEhOGE8FtRmxYQz01Oo_hTMNw4g9xZDwlDQKOrDDL-oOgUS4h5I-DCqqxqTf4GL68qSJhEksv6fgDoVLqqP0iN_OR0DzAmvf4VRLEfkDM9MLt5rIP-yIUVF9oz-FxgpDxtpw_JU_dJ_nlIRFTpGayVV7jszNejttiD_]--></g></svg>